# MagicaVoxel @ Ephtracy

# group
o 

# material
mtllib symbol_housing.mtl
usemtl palette

# normals
vn -1 0 0
vn 1 0 0
vn 0 0 1
vn 0 0 -1
vn 0 -1 0
vn 0 1 0

# texcoords
vt 0.880859 0.5
vt 0.970703 0.5
vt 0.978516 0.5

# verts
v -1.3 1.4 0.1
v -1.3 1.4 -0.2
v -1.3 2.9 0.1
v -1.3 2.9 -0.2
v -0.0999999 0 0.1
v -0.0999999 0 -0.2
v -0.0999999 1.4 0.1
v -0.0999999 1.4 -0.2
v 0.2 0 0.1
v 0.2 0 -0.2
v 0.2 1.4 0.1
v 0.2 1.4 -0.2
v 1.4 1.4 0.1
v 1.4 1.4 -0.2
v 1.4 2.9 0.1
v 1.4 2.9 -0.2
v -1.3 1.4 0.1
v -1.3 2.9 0.1
v -1.2 1.5 0.1
v -1.2 2.8 0.1
v -1.1 1.6 0.1
v -1.1 2.7 0.1
v -0.3 2.2 0.1
v -0.3 2.3 0.1
v -0.2 1.8 0.1
v -0.2 2.2 0.1
v -0.2 2.3 0.1
v -0.2 2.4 0.1
v -0.0999999 0 0.1
v -0.0999999 1.4 0.1
v -0.0999999 1.9 0.1
v -0.0999999 2.1 0.1
v -0.0999999 2.3 0.1
v -0.0999999 2.4 0.1
v -0.0999999 2.5 0.1
v 0.2 0 0.1
v 0.2 1.4 0.1
v 0.2 1.9 0.1
v 0.2 2.1 0.1
v 0.2 2.3 0.1
v 0.2 2.4 0.1
v 0.2 2.5 0.1
v 0.3 1.8 0.1
v 0.3 2.2 0.1
v 0.3 2.3 0.1
v 0.3 2.4 0.1
v 0.4 2.2 0.1
v 0.4 2.3 0.1
v 1.2 1.6 0.1
v 1.2 2.7 0.1
v 1.3 1.5 0.1
v 1.3 2.8 0.1
v 1.4 1.4 0.1
v 1.4 2.9 0.1
v -1.3 1.4 -0.2
v -1.3 2.9 -0.2
v -0.0999999 0 -0.2
v -0.0999999 1.4 -0.2
v -0.0999999 2.4 -0.2
v 0.2 0 -0.2
v 0.2 1.4 -0.2
v 0.2 2.4 -0.2
v 1.4 1.4 -0.2
v 1.4 2.9 -0.2
v -0.0999999 0 0.1
v 0.2 0 0.1
v -0.0999999 0 -0.2
v 0.2 0 -0.2
v -1.3 1.4 0.1
v -0.0999999 1.4 0.1
v 0.2 1.4 0.1
v 1.4 1.4 0.1
v -1.3 1.4 -0.2
v -0.0999999 1.4 -0.2
v 0.2 1.4 -0.2
v 1.4 1.4 -0.2
v -1.3 2.9 0.1
v 1.4 2.9 0.1
v -1.3 2.9 -0.2
v 1.4 2.9 -0.2

# faces
f 3/2/1 2/2/1 1/2/1
f 4/2/1 2/2/1 3/2/1
f 7/3/1 6/3/1 5/3/1
f 8/3/1 6/3/1 7/3/1
f 9/3/2 10/3/2 11/3/2
f 11/3/2 10/3/2 12/3/2
f 13/2/2 14/2/2 15/2/2
f 15/2/2 14/2/2 16/2/2
f 19/2/3 18/2/3 17/2/3
f 20/2/3 18/2/3 19/2/3
f 21/1/3 20/1/3 19/1/3
f 22/1/3 20/1/3 21/1/3
f 23/2/3 22/2/3 21/2/3
f 24/2/3 22/2/3 23/2/3
f 25/2/3 23/2/3 21/2/3
f 26/1/3 24/1/3 23/1/3
f 26/2/3 23/2/3 25/2/3
f 27/2/3 22/2/3 24/2/3
f 27/1/3 24/1/3 26/1/3
f 28/2/3 22/2/3 27/2/3
f 30/2/3 19/2/3 17/2/3
f 31/1/3 26/1/3 25/1/3
f 32/1/3 26/1/3 31/1/3
f 33/2/3 27/2/3 26/2/3
f 33/1/3 28/1/3 27/1/3
f 34/2/3 22/2/3 28/2/3
f 34/1/3 28/1/3 33/1/3
f 35/2/3 22/2/3 34/2/3
f 36/3/3 30/3/3 29/3/3
f 37/2/3 19/2/3 30/2/3
f 37/3/3 30/3/3 36/3/3
f 38/2/3 32/2/3 31/2/3
f 38/1/3 31/1/3 25/1/3
f 39/1/3 26/1/3 32/1/3
f 39/2/3 32/2/3 38/2/3
f 40/2/3 33/2/3 26/2/3
f 40/2/3 34/2/3 33/2/3
f 41/1/3 35/1/3 34/1/3
f 41/2/3 34/2/3 40/2/3
f 42/2/3 22/2/3 35/2/3
f 42/1/3 35/1/3 41/1/3
f 43/2/3 25/2/3 21/2/3
f 43/1/3 38/1/3 25/1/3
f 43/1/3 39/1/3 38/1/3
f 44/1/3 26/1/3 39/1/3
f 44/1/3 39/1/3 43/1/3
f 44/2/3 40/2/3 26/2/3
f 45/1/3 41/1/3 40/1/3
f 45/2/3 40/2/3 44/2/3
f 46/2/3 42/2/3 41/2/3
f 46/1/3 41/1/3 45/1/3
f 47/2/3 44/2/3 43/2/3
f 47/1/3 45/1/3 44/1/3
f 48/2/3 46/2/3 45/2/3
f 48/1/3 45/1/3 47/1/3
f 49/2/3 43/2/3 21/2/3
f 49/1/3 21/1/3 19/1/3
f 49/2/3 48/2/3 47/2/3
f 49/2/3 47/2/3 43/2/3
f 50/2/3 46/2/3 48/2/3
f 50/2/3 48/2/3 49/2/3
f 50/1/3 20/1/3 22/1/3
f 50/2/3 42/2/3 46/2/3
f 50/2/3 22/2/3 42/2/3
f 51/1/3 49/1/3 19/1/3
f 51/2/3 19/2/3 37/2/3
f 51/1/3 50/1/3 49/1/3
f 52/1/3 20/1/3 50/1/3
f 52/1/3 50/1/3 51/1/3
f 52/2/3 18/2/3 20/2/3
f 53/2/3 51/2/3 37/2/3
f 53/2/3 52/2/3 51/2/3
f 54/2/3 18/2/3 52/2/3
f 54/2/3 52/2/3 53/2/3
f 55/2/4 56/2/4 58/2/4
f 58/2/4 56/2/4 59/2/4
f 57/3/4 58/3/4 60/3/4
f 58/3/4 59/3/4 60/3/4
f 60/3/4 59/3/4 61/3/4
f 59/2/4 56/2/4 62/2/4
f 61/3/4 59/3/4 62/3/4
f 61/2/4 62/2/4 63/2/4
f 62/2/4 56/2/4 64/2/4
f 63/2/4 62/2/4 64/2/4
f 67/3/5 66/3/5 65/3/5
f 68/3/5 66/3/5 67/3/5
f 73/2/5 70/2/5 69/2/5
f 74/2/5 70/2/5 73/2/5
f 75/2/5 72/2/5 71/2/5
f 76/2/5 72/2/5 75/2/5
f 77/2/6 78/2/6 79/2/6
f 79/2/6 78/2/6 80/2/6
